<svg width="30" height="30" viewBox="0 0 30 30" fill="none" xmlns="http://www.w3.org/2000/svg">
<g id="iconamoon:shield-yes-duotone">
<g id="Group">
<path id="Vector" opacity="0.16" d="M7.0075 7.175L15 3.75L22.9925 7.175C23.2175 7.27145 23.4092 7.43185 23.5439 7.63628C23.6785 7.84072 23.7502 8.0802 23.75 8.325V16.8975C23.7501 18.2198 23.4007 19.5186 22.7371 20.6623C22.0735 21.806 21.1193 22.7539 19.9713 23.41L15 26.25L10.0287 23.4087C8.88089 22.7528 7.92683 21.8051 7.26323 20.6616C6.59963 19.5181 6.25008 18.2196 6.25 16.8975V8.325C6.25003 8.08041 6.32181 7.8412 6.45646 7.63701C6.5911 7.43282 6.7827 7.27262 7.0075 7.17625V7.175Z" fill="#F24E1E"/>
<path id="Vector_2" d="M15 3.75001L15.4925 2.60001C15.3369 2.5333 15.1693 2.4989 15 2.4989C14.8307 2.4989 14.6631 2.5333 14.5075 2.60001L15 3.75001ZM15 26.25L14.38 27.335C14.5688 27.4429 14.7825 27.4996 15 27.4996C15.2175 27.4996 15.4312 27.4429 15.62 27.335L15 26.25ZM10.03 23.4088L9.40875 24.495L10.0287 23.4088H10.03ZM14.5075 2.60126L6.515 6.02501L7.5 8.32501L15.4925 4.90001L14.5075 2.60126ZM5 8.32376V16.8988H7.5V8.32376H5ZM9.40875 24.495L14.38 27.335L15.62 25.165L10.6488 22.3238L9.40875 24.495ZM15.62 27.335L20.5912 24.495L19.3512 22.3238L14.38 25.165L15.62 27.335ZM25 16.8975V8.32501H22.5V16.9H25V16.8975ZM23.485 6.02626L15.4925 2.60126L14.5075 4.89876L22.5 8.32501L23.485 6.02626ZM25 8.32501C24.9999 7.83584 24.8564 7.35742 24.5871 6.94904C24.3178 6.54066 23.9346 6.219 23.485 6.02626L22.5 8.32501H25ZM20.5912 24.495C21.9308 23.7296 23.0441 22.6248 23.8184 21.2903C24.5926 19.9558 25.0003 18.4403 25 16.8975H22.5C22.4999 17.9994 22.2084 19.0816 21.6552 20.0346C21.1021 20.9875 20.3068 21.7772 19.35 22.3238L20.5912 24.495ZM5 16.8975C4.99993 18.4401 5.40768 19.9553 6.18193 21.2896C6.95617 22.6238 8.06939 23.7297 9.40875 24.495L10.6488 22.3238C9.69258 21.7773 8.89778 20.9879 8.34484 20.0354C7.7919 19.083 7.50045 18.0013 7.5 16.9H5V16.8975ZM6.515 6.02501C6.0652 6.21783 5.68188 6.53968 5.41257 6.94831C5.14326 7.35694 4.99981 7.83562 5 8.32501H7.5L6.515 6.02751V6.02501Z" fill="#F24E1E"/>
<path id="Vector_3" d="M18.75 12.5L13.75 17.5L11.25 15" stroke="#F24E1E" stroke-width="5.83333" stroke-linecap="round" stroke-linejoin="round"/>
</g>
</g>
</svg>
