<svg width="40" height="40" viewBox="0 0 40 40" fill="none" xmlns="http://www.w3.org/2000/svg">
<g id="carbon:operations-field">
<path id="Vector" d="M25.0016 15V2.5H27.5016V15H25.0016ZM30.0016 15V2.5H32.5016V15H30.0016ZM35.0016 15V2.5H37.5016V15H35.0016ZM20.0017 25C19.3409 25.015 18.684 24.896 18.0706 24.65C17.4572 24.4041 16.9 24.0363 16.4326 23.569C15.9653 23.1017 15.5976 22.5445 15.3516 21.9311C15.1057 21.3176 14.9866 20.6607 15.0017 20C14.9866 19.3393 15.1057 18.6824 15.3516 18.0689C15.5976 17.4555 15.9653 16.8983 16.4326 16.431C16.9 15.9637 17.4572 15.5959 18.0706 15.35C18.684 15.104 19.3409 14.985 20.0017 15V12.5C18.5183 12.5 17.0682 12.9399 15.8349 13.764C14.6015 14.5881 13.6402 15.7594 13.0726 17.1299C12.5049 18.5003 12.3564 20.0083 12.6458 21.4632C12.9352 22.918 13.6495 24.2544 14.6984 25.3033C15.7472 26.3522 17.0836 27.0665 18.5385 27.3559C19.9933 27.6453 21.5013 27.4968 22.8718 26.9291C24.2422 26.3614 25.4136 25.4001 26.2377 24.1668C27.0618 22.9334 27.5016 21.4834 27.5016 20H25.0016C25.0167 20.6607 24.8976 21.3176 24.6517 21.9311C24.4057 22.5445 24.038 23.1017 23.5707 23.569C23.1033 24.0363 22.5461 24.4041 21.9327 24.65C21.3193 24.896 20.6624 25.015 20.0017 25Z" fill="#F24E1E"/>
<path id="Vector_2" d="M36.1179 23.0675L32.6241 20L30.9766 21.88L34.4666 24.945L31.5166 30.055L27.2329 28.605C26.2247 29.4497 25.0766 30.1118 23.8404 30.5612L22.9516 35H17.0516L16.1641 30.5625C14.9364 30.1064 13.7967 29.4417 12.7954 28.5975L8.48664 30.055L5.53664 24.945L8.94289 21.9513C8.70985 20.6586 8.70688 19.3349 8.93414 18.0412L5.53664 15.0538L8.48664 9.945L12.7704 11.395C13.7789 10.5497 14.9274 9.88719 16.1641 9.4375L17.0516 5H20.0016V2.5H17.0516C16.4737 2.50006 15.9136 2.70036 15.4667 3.06682C15.0198 3.43328 14.7137 3.94326 14.6004 4.51L13.9704 7.6575C13.3963 7.93276 12.842 8.24769 12.3116 8.6L9.28664 7.57625C8.7393 7.39092 8.14463 7.40112 7.60397 7.60512C7.06331 7.80913 6.61013 8.1943 6.32164 8.695L3.37164 13.805C3.08265 14.3054 2.97592 14.8904 3.06958 15.4606C3.16324 16.0307 3.45152 16.5509 3.88539 16.9325L6.29914 19.0537C6.27789 19.3687 6.25164 19.6812 6.25164 20C6.25164 20.3225 6.26414 20.6413 6.28664 20.9575L3.88664 23.0675C3.45237 23.4488 3.16361 23.9688 3.06949 24.539C2.97536 25.1092 3.0817 25.6944 3.37039 26.195L6.32039 31.305C6.60897 31.8062 7.06258 32.1918 7.60378 32.3958C8.14498 32.5999 8.74022 32.6097 9.28789 32.4237L12.3304 31.3937C12.8545 31.7474 13.4025 32.0644 13.9704 32.3425L14.5991 35.49C14.7125 36.0569 15.0188 36.5671 15.4659 36.9336C15.9131 37.3001 16.4735 37.5002 17.0516 37.5H22.9516C23.5296 37.4999 24.0897 37.2996 24.5366 36.9332C24.9835 36.5667 25.2896 36.0567 25.4029 35.49L26.0329 32.3412C26.607 32.0664 27.1612 31.7519 27.6916 31.4L30.7154 32.4225C31.2628 32.6083 31.8576 32.5984 32.3985 32.3946C32.9394 32.1909 33.3929 31.8058 33.6816 31.305L36.6316 26.195C36.9206 25.6946 37.0274 25.1096 36.9337 24.5394C36.84 23.9693 36.5518 23.4491 36.1179 23.0675Z" fill="#F24E1E"/>
</g>
</svg>
