<svg width="40" height="40" viewBox="0 0 40 40" fill="none" xmlns="http://www.w3.org/2000/svg">
<g id="flat-color-icons:sales-performance">
<g id="Group">
<path id="Vector" d="M31.6692 10.8333C28.9192 10.8333 26.6692 10.0833 26.6692 9.16663V10.8333C26.6692 11.75 28.9192 12.5 31.6692 12.5C34.4192 12.5 36.6692 11.75 36.6692 10.8333V9.16663C36.6692 10.0833 34.4192 10.8333 31.6692 10.8333Z" fill="#FFA000"/>
<path id="Vector_2" d="M31.6692 8.33329C28.9192 8.33329 26.6692 7.58329 26.6692 6.66663V8.33329C26.6692 9.24996 28.9192 9.99996 31.6692 9.99996C34.4192 9.99996 36.6692 9.24996 36.6692 8.33329V6.66663C36.6692 7.58329 34.4192 8.33329 31.6692 8.33329ZM31.6692 13.3333C28.9192 13.3333 26.6692 12.5833 26.6692 11.6666V13.3333C26.6692 14.25 28.9192 15 31.6692 15C34.4192 15 36.6692 14.25 36.6692 13.3333V11.6666C36.6692 12.5833 34.4192 13.3333 31.6692 13.3333Z" fill="#FFA000"/>
<path id="Vector_3" d="M31.6692 15.8333C28.9192 15.8333 26.6692 15.0833 26.6692 14.1666V15.8333C26.6692 16.75 28.9192 17.5 31.6692 17.5C34.4192 17.5 36.6692 16.75 36.6692 15.8333V14.1666C36.6692 15.0833 34.4192 15.8333 31.6692 15.8333Z" fill="#FFA000"/>
<path id="Vector_4" d="M31.6692 18.3333C28.9192 18.3333 26.6692 17.5833 26.6692 16.6666V18.3333C26.6692 19.25 28.9192 20 31.6692 20C34.4192 20 36.6692 19.25 36.6692 18.3333V16.6666C36.6692 17.5833 34.4192 18.3333 31.6692 18.3333Z" fill="#FFA000"/>
<path id="Vector_5" d="M31.6692 20.8333C28.9192 20.8333 26.6692 20.0833 26.6692 19.1666V20.8333C26.6692 21.75 28.9192 22.5 31.6692 22.5C34.4192 22.5 36.6692 21.75 36.6692 20.8333V19.1666C36.6692 20.0833 34.4192 20.8333 31.6692 20.8333Z" fill="#FFA000"/>
<path id="Vector_6" d="M31.6692 23.3333C28.9192 23.3333 26.6692 22.5833 26.6692 21.6666V23.3333C26.6692 24.25 28.9192 25 31.6692 25C34.4192 25 36.6692 24.25 36.6692 23.3333V21.6666C36.6692 22.5833 34.4192 23.3333 31.6692 23.3333Z" fill="#FFA000"/>
<path id="Vector_7" d="M31.6692 25.8333C28.9192 25.8333 26.6692 25.0833 26.6692 24.1666V25.8333C26.6692 26.75 28.9192 27.5 31.6692 27.5C34.4192 27.5 36.6692 26.75 36.6692 25.8333V24.1666C36.6692 25.0833 34.4192 25.8333 31.6692 25.8333Z" fill="#FFA000"/>
<path id="Vector_8" d="M31.6692 28.3333C28.9192 28.3333 26.6692 27.5833 26.6692 26.6666V28.3333C26.6692 29.25 28.9192 30 31.6692 30C34.4192 30 36.6692 29.25 36.6692 28.3333V26.6666C36.6692 27.5833 34.4192 28.3333 31.6692 28.3333Z" fill="#FFA000"/>
<path id="Vector_9" d="M31.6692 30.8333C28.9192 30.8333 26.6692 30.0833 26.6692 29.1666V30.8333C26.6692 31.75 28.9192 32.5 31.6692 32.5C34.4192 32.5 36.6692 31.75 36.6692 30.8333V29.1666C36.6692 30.0833 34.4192 30.8333 31.6692 30.8333Z" fill="#FFA000"/>
<path id="Vector_10" d="M31.6692 33.3333C28.9192 33.3333 26.6692 32.5833 26.6692 31.6666V33.3333C26.6692 34.25 28.9192 35 31.6692 35C34.4192 35 36.6692 34.25 36.6692 33.3333V31.6666C36.6692 32.5833 34.4192 33.3333 31.6692 33.3333Z" fill="#FFA000"/>
</g>
<g id="Group_2">
<path id="Vector_11" d="M31.6692 8.33333C34.4306 8.33333 36.6692 7.58714 36.6692 6.66667C36.6692 5.74619 34.4306 5 31.6692 5C28.9077 5 26.6692 5.74619 26.6692 6.66667C26.6692 7.58714 28.9077 8.33333 31.6692 8.33333Z" fill="#F24E1E"/>
<path id="Vector_12" d="M31.6692 10C29.3358 10 27.4192 9.5 26.8358 8.75C26.7525 8.91667 26.6692 9 26.6692 9.16667C26.6692 10.0833 28.9192 10.8333 31.6692 10.8333C34.4192 10.8333 36.6692 10.0833 36.6692 9.16667C36.6692 9 36.5858 8.91667 36.5025 8.75C35.9192 9.5 34.0025 10 31.6692 10ZM31.6692 12.5C29.3358 12.5 27.4192 12 26.8358 11.25C26.7525 11.4167 26.6692 11.5 26.6692 11.6667C26.6692 12.5833 28.9192 13.3333 31.6692 13.3333C34.4192 13.3333 36.6692 12.5833 36.6692 11.6667C36.6692 11.5 36.5858 11.4167 36.5025 11.25C35.9192 12 34.0025 12.5 31.6692 12.5ZM31.6692 15C29.3358 15 27.4192 14.5 26.8358 13.75C26.7525 13.9167 26.6692 14 26.6692 14.1667C26.6692 15.0833 28.9192 15.8333 31.6692 15.8333C34.4192 15.8333 36.6692 15.0833 36.6692 14.1667C36.6692 14 36.5858 13.9167 36.5025 13.75C35.9192 14.5 34.0025 15 31.6692 15ZM31.6692 17.5C29.3358 17.5 27.4192 17 26.8358 16.25C26.7525 16.4167 26.6692 16.5 26.6692 16.6667C26.6692 17.5833 28.9192 18.3333 31.6692 18.3333C34.4192 18.3333 36.6692 17.5833 36.6692 16.6667C36.6692 16.5 36.5858 16.4167 36.5025 16.25C35.9192 17 34.0025 17.5 31.6692 17.5ZM31.6692 20C29.3358 20 27.4192 19.5 26.8358 18.75C26.7525 18.9167 26.6692 19 26.6692 19.1667C26.6692 20.0833 28.9192 20.8333 31.6692 20.8333C34.4192 20.8333 36.6692 20.0833 36.6692 19.1667C36.6692 19 36.5858 18.9167 36.5025 18.75C35.9192 19.5 34.0025 20 31.6692 20ZM31.6692 22.5C29.3358 22.5 27.4192 22 26.8358 21.25C26.7525 21.4167 26.6692 21.5 26.6692 21.6667C26.6692 22.5833 28.9192 23.3333 31.6692 23.3333C34.4192 23.3333 36.6692 22.5833 36.6692 21.6667C36.6692 21.5 36.5858 21.4167 36.5025 21.25C35.9192 22 34.0025 22.5 31.6692 22.5ZM31.6692 25C29.3358 25 27.4192 24.5 26.8358 23.75C26.7525 23.9167 26.6692 24 26.6692 24.1667C26.6692 25.0833 28.9192 25.8333 31.6692 25.8333C34.4192 25.8333 36.6692 25.0833 36.6692 24.1667C36.6692 24 36.5858 23.9167 36.5025 23.75C35.9192 24.5 34.0025 25 31.6692 25ZM31.6692 27.5C29.3358 27.5 27.4192 27 26.8358 26.25C26.7525 26.4167 26.6692 26.5 26.6692 26.6667C26.6692 27.5833 28.9192 28.3333 31.6692 28.3333C34.4192 28.3333 36.6692 27.5833 36.6692 26.6667C36.6692 26.5 36.5858 26.4167 36.5025 26.25C35.9192 27 34.0025 27.5 31.6692 27.5ZM31.6692 30C29.3358 30 27.4192 29.5 26.8358 28.75C26.7525 28.9167 26.6692 29 26.6692 29.1667C26.6692 30.0833 28.9192 30.8333 31.6692 30.8333C34.4192 30.8333 36.6692 30.0833 36.6692 29.1667C36.6692 29 36.5858 28.9167 36.5025 28.75C35.9192 29.5 34.0025 30 31.6692 30ZM31.6692 32.5C29.3358 32.5 27.4192 32 26.8358 31.25C26.7525 31.4167 26.6692 31.5 26.6692 31.6667C26.6692 32.5833 28.9192 33.3333 31.6692 33.3333C34.4192 33.3333 36.6692 32.5833 36.6692 31.6667C36.6692 31.5 36.5858 31.4167 36.5025 31.25C35.9192 32 34.0025 32.5 31.6692 32.5Z" fill="#F24E1E"/>
</g>
<g id="Group_3">
<path id="Vector_13" d="M8.33583 15.8333C5.58583 15.8333 3.33583 15.0833 3.33583 14.1666V15.8333C3.33583 16.75 5.58583 17.5 8.33583 17.5C11.0858 17.5 13.3358 16.75 13.3358 15.8333V14.1666C13.3358 15.0833 11.0858 15.8333 8.33583 15.8333Z" fill="#FFA000"/>
<path id="Vector_14" d="M8.33583 13.3333C5.58583 13.3333 3.33583 12.5833 3.33583 11.6666V13.3333C3.33583 14.25 5.58583 15 8.33583 15C11.0858 15 13.3358 14.25 13.3358 13.3333V11.6666C13.3358 12.5833 11.0858 13.3333 8.33583 13.3333ZM8.33583 18.3333C5.58583 18.3333 3.33583 17.5833 3.33583 16.6666V18.3333C3.33583 19.25 5.58583 20 8.33583 20C11.0858 20 13.3358 19.25 13.3358 18.3333V16.6666C13.3358 17.5833 11.0858 18.3333 8.33583 18.3333Z" fill="#FFA000"/>
<path id="Vector_15" d="M8.33583 20.8333C5.58583 20.8333 3.33583 20.0833 3.33583 19.1666V20.8333C3.33583 21.75 5.58583 22.5 8.33583 22.5C11.0858 22.5 13.3358 21.75 13.3358 20.8333V19.1666C13.3358 20.0833 11.0858 20.8333 8.33583 20.8333Z" fill="#FFA000"/>
<path id="Vector_16" d="M8.33583 23.3333C5.58583 23.3333 3.33583 22.5833 3.33583 21.6666V23.3333C3.33583 24.25 5.58583 25 8.33583 25C11.0858 25 13.3358 24.25 13.3358 23.3333V21.6666C13.3358 22.5833 11.0858 23.3333 8.33583 23.3333Z" fill="#FFA000"/>
<path id="Vector_17" d="M8.33583 25.8333C5.58583 25.8333 3.33583 25.0833 3.33583 24.1666V25.8333C3.33583 26.75 5.58583 27.5 8.33583 27.5C11.0858 27.5 13.3358 26.75 13.3358 25.8333V24.1666C13.3358 25.0833 11.0858 25.8333 8.33583 25.8333Z" fill="#FFA000"/>
<path id="Vector_18" d="M8.33583 28.3333C5.58583 28.3333 3.33583 27.5833 3.33583 26.6666V28.3333C3.33583 29.25 5.58583 30 8.33583 30C11.0858 30 13.3358 29.25 13.3358 28.3333V26.6666C13.3358 27.5833 11.0858 28.3333 8.33583 28.3333Z" fill="#FFA000"/>
<path id="Vector_19" d="M8.33583 30.8333C5.58583 30.8333 3.33583 30.0833 3.33583 29.1666V30.8333C3.33583 31.75 5.58583 32.5 8.33583 32.5C11.0858 32.5 13.3358 31.75 13.3358 30.8333V29.1666C13.3358 30.0833 11.0858 30.8333 8.33583 30.8333Z" fill="#FFA000"/>
<path id="Vector_20" d="M8.33583 33.3333C5.58583 33.3333 3.33583 32.5833 3.33583 31.6666V33.3333C3.33583 34.25 5.58583 35 8.33583 35C11.0858 35 13.3358 34.25 13.3358 33.3333V31.6666C13.3358 32.5833 11.0858 33.3333 8.33583 33.3333Z" fill="#FFA000"/>
</g>
<g id="Group_4">
<path id="Vector_21" d="M8.33583 13.3333C11.0973 13.3333 13.3358 12.5871 13.3358 11.6667C13.3358 10.7462 11.0973 10 8.33583 10C5.57441 10 3.33583 10.7462 3.33583 11.6667C3.33583 12.5871 5.57441 13.3333 8.33583 13.3333Z" fill="#F24E1E"/>
<path id="Vector_22" d="M8.33583 15C6.0025 15 4.08583 14.5 3.5025 13.75C3.41916 13.9167 3.33583 14 3.33583 14.1667C3.33583 15.0833 5.58583 15.8333 8.33583 15.8333C11.0858 15.8333 13.3358 15.0833 13.3358 14.1667C13.3358 14 13.2525 13.9167 13.1692 13.75C12.5858 14.5 10.6692 15 8.33583 15ZM8.33583 17.5C6.0025 17.5 4.08583 17 3.5025 16.25C3.41916 16.4167 3.33583 16.5 3.33583 16.6667C3.33583 17.5833 5.58583 18.3333 8.33583 18.3333C11.0858 18.3333 13.3358 17.5833 13.3358 16.6667C13.3358 16.5 13.2525 16.4167 13.1692 16.25C12.5858 17 10.6692 17.5 8.33583 17.5ZM8.33583 20C6.0025 20 4.08583 19.5 3.5025 18.75C3.41916 18.9167 3.33583 19 3.33583 19.1667C3.33583 20.0833 5.58583 20.8333 8.33583 20.8333C11.0858 20.8333 13.3358 20.0833 13.3358 19.1667C13.3358 19 13.2525 18.9167 13.1692 18.75C12.5858 19.5 10.6692 20 8.33583 20ZM8.33583 22.5C6.0025 22.5 4.08583 22 3.5025 21.25C3.41916 21.4167 3.33583 21.5 3.33583 21.6667C3.33583 22.5833 5.58583 23.3333 8.33583 23.3333C11.0858 23.3333 13.3358 22.5833 13.3358 21.6667C13.3358 21.5 13.2525 21.4167 13.1692 21.25C12.5858 22 10.6692 22.5 8.33583 22.5ZM8.33583 25C6.0025 25 4.08583 24.5 3.5025 23.75C3.41916 23.9167 3.33583 24 3.33583 24.1667C3.33583 25.0833 5.58583 25.8333 8.33583 25.8333C11.0858 25.8333 13.3358 25.0833 13.3358 24.1667C13.3358 24 13.2525 23.9167 13.1692 23.75C12.5858 24.5 10.6692 25 8.33583 25ZM8.33583 27.5C6.0025 27.5 4.08583 27 3.5025 26.25C3.41916 26.4167 3.33583 26.5 3.33583 26.6667C3.33583 27.5833 5.58583 28.3333 8.33583 28.3333C11.0858 28.3333 13.3358 27.5833 13.3358 26.6667C13.3358 26.5 13.2525 26.4167 13.1692 26.25C12.5858 27 10.6692 27.5 8.33583 27.5ZM8.33583 30C6.0025 30 4.08583 29.5 3.5025 28.75C3.41916 28.9167 3.33583 29 3.33583 29.1667C3.33583 30.0833 5.58583 30.8333 8.33583 30.8333C11.0858 30.8333 13.3358 30.0833 13.3358 29.1667C13.3358 29 13.2525 28.9167 13.1692 28.75C12.5858 29.5 10.6692 30 8.33583 30ZM8.33583 32.5C6.0025 32.5 4.08583 32 3.5025 31.25C3.41916 31.4167 3.33583 31.5 3.33583 31.6667C3.33583 32.5833 5.58583 33.3333 8.33583 33.3333C11.0858 33.3333 13.3358 32.5833 13.3358 31.6667C13.3358 31.5 13.2525 31.4167 13.1692 31.25C12.5858 32 10.6692 32.5 8.33583 32.5Z" fill="#F24E1E"/>
</g>
<g id="Group_5">
<path id="Vector_23" d="M20.0025 23.3333C17.2525 23.3333 15.0025 22.5833 15.0025 21.6666V23.3333C15.0025 24.25 17.2525 25 20.0025 25C22.7525 25 25.0025 24.25 25.0025 23.3333V21.6666C25.0025 22.5833 22.7525 23.3333 20.0025 23.3333Z" fill="#FFA000"/>
<path id="Vector_24" d="M20.0025 20.8333C17.2525 20.8333 15.0025 20.0833 15.0025 19.1666V20.8333C15.0025 21.75 17.2525 22.5 20.0025 22.5C22.7525 22.5 25.0025 21.75 25.0025 20.8333V19.1666C25.0025 20.0833 22.7525 20.8333 20.0025 20.8333ZM20.0025 25.8333C17.2525 25.8333 15.0025 25.0833 15.0025 24.1666V25.8333C15.0025 26.75 17.2525 27.5 20.0025 27.5C22.7525 27.5 25.0025 26.75 25.0025 25.8333V24.1666C25.0025 25.0833 22.7525 25.8333 20.0025 25.8333Z" fill="#FFA000"/>
<path id="Vector_25" d="M20.0025 28.3333C17.2525 28.3333 15.0025 27.5833 15.0025 26.6666V28.3333C15.0025 29.25 17.2525 30 20.0025 30C22.7525 30 25.0025 29.25 25.0025 28.3333V26.6666C25.0025 27.5833 22.7525 28.3333 20.0025 28.3333Z" fill="#FFA000"/>
<path id="Vector_26" d="M20.0025 30.8333C17.2525 30.8333 15.0025 30.0833 15.0025 29.1666V30.8333C15.0025 31.75 17.2525 32.5 20.0025 32.5C22.7525 32.5 25.0025 31.75 25.0025 30.8333V29.1666C25.0025 30.0833 22.7525 30.8333 20.0025 30.8333Z" fill="#FFA000"/>
<path id="Vector_27" d="M20.0025 33.3333C17.2525 33.3333 15.0025 32.5833 15.0025 31.6666V33.3333C15.0025 34.25 17.2525 35 20.0025 35C22.7525 35 25.0025 34.25 25.0025 33.3333V31.6666C25.0025 32.5833 22.7525 33.3333 20.0025 33.3333Z" fill="#FFA000"/>
</g>
<g id="Group_6">
<path id="Vector_28" d="M20.0025 20.8333C22.7639 20.8333 25.0025 20.0871 25.0025 19.1667C25.0025 18.2462 22.7639 17.5 20.0025 17.5C17.2411 17.5 15.0025 18.2462 15.0025 19.1667C15.0025 20.0871 17.2411 20.8333 20.0025 20.8333Z" fill="#F24E1E"/>
<path id="Vector_29" d="M20.0025 22.5C17.6692 22.5 15.7525 22 15.1692 21.25C15.0858 21.4167 15.0025 21.5 15.0025 21.6667C15.0025 22.5833 17.2525 23.3333 20.0025 23.3333C22.7525 23.3333 25.0025 22.5833 25.0025 21.6667C25.0025 21.5 24.9192 21.4167 24.8358 21.25C24.2525 22 22.3358 22.5 20.0025 22.5ZM20.0025 25C17.6692 25 15.7525 24.5 15.1692 23.75C15.0858 23.9167 15.0025 24 15.0025 24.1667C15.0025 25.0833 17.2525 25.8333 20.0025 25.8333C22.7525 25.8333 25.0025 25.0833 25.0025 24.1667C25.0025 24 24.9192 23.9167 24.8358 23.75C24.2525 24.5 22.3358 25 20.0025 25ZM20.0025 27.5C17.6692 27.5 15.7525 27 15.1692 26.25C15.0858 26.4167 15.0025 26.5 15.0025 26.6667C15.0025 27.5833 17.2525 28.3333 20.0025 28.3333C22.7525 28.3333 25.0025 27.5833 25.0025 26.6667C25.0025 26.5 24.9192 26.4167 24.8358 26.25C24.2525 27 22.3358 27.5 20.0025 27.5ZM20.0025 30C17.6692 30 15.7525 29.5 15.1692 28.75C15.0858 28.9167 15.0025 29 15.0025 29.1667C15.0025 30.0833 17.2525 30.8333 20.0025 30.8333C22.7525 30.8333 25.0025 30.0833 25.0025 29.1667C25.0025 29 24.9192 28.9167 24.8358 28.75C24.2525 29.5 22.3358 30 20.0025 30ZM20.0025 32.5C17.6692 32.5 15.7525 32 15.1692 31.25C15.0858 31.4167 15.0025 31.5 15.0025 31.6667C15.0025 32.5833 17.2525 33.3333 20.0025 33.3333C22.7525 33.3333 25.0025 32.5833 25.0025 31.6667C25.0025 31.5 24.9192 31.4167 24.8358 31.25C24.2525 32 22.3358 32.5 20.0025 32.5Z" fill="#F24E1E"/>
</g>
</g>
</svg>
