<svg width="41" height="40" viewBox="0 0 41 40" fill="none" xmlns="http://www.w3.org/2000/svg">
<g id="streamline:money-cash-bag-dollar-bag-payment-cash-money-finance" clip-path="url(#clip0_16_279)">
<g id="Group">
<path id="Vector" d="M20.5042 28.6286V31.5143M20.5042 14.3143V17M20.5042 38.5429C30.5042 38.5429 37.647 35 37.647 27.1143C37.647 18.5429 33.3613 12.8286 24.7899 8.5429L28.1613 4.20004C28.3326 3.9151 28.4255 3.58994 28.4306 3.25752C28.4357 2.9251 28.3528 2.59724 28.1904 2.30717C28.028 2.0171 27.7917 1.77513 27.5056 1.60579C27.2195 1.43645 26.8937 1.34575 26.5613 1.3429H14.447C14.1146 1.34575 13.7888 1.43645 13.5027 1.60579C13.2166 1.77513 12.9804 2.0171 12.8179 2.30717C12.6555 2.59724 12.5726 2.9251 12.5777 3.25752C12.5828 3.58994 12.6757 3.9151 12.847 4.20004L16.2184 8.57147C7.64701 12.8858 3.3613 18.6 3.3613 27.1715C3.3613 35 10.5042 38.5429 20.5042 38.5429Z" stroke="#F24E1E" stroke-width="3" stroke-linecap="round" stroke-linejoin="round"/>
<path id="Vector_2" d="M17.647 27.3143C17.9956 27.7281 18.4344 28.0566 18.9297 28.2745C19.4249 28.4924 19.9635 28.594 20.5042 28.5715C21.3305 28.6278 22.1464 28.3616 22.7805 27.8287C23.4146 27.2959 23.8173 26.538 23.9042 25.7143C23.8173 24.8907 23.4146 24.1328 22.7805 23.5999C22.1464 23.0671 21.3305 22.8009 20.5042 22.8572C19.6779 22.9135 18.8619 22.6473 18.2278 22.1144C17.5938 21.5816 17.191 20.8237 17.1042 20C17.184 19.1735 17.5848 18.4112 18.2206 17.877C18.8563 17.3428 19.6762 17.0792 20.5042 17.1429C21.0353 17.1104 21.567 17.196 22.061 17.3937C22.555 17.5913 22.9991 17.8959 23.3613 18.2858" stroke="#F24E1E" stroke-width="3" stroke-linecap="round" stroke-linejoin="round"/>
</g>
</g>
<defs>
<clipPath id="clip0_16_279">
<rect width="40" height="40" fill="white" transform="translate(0.50415)"/>
</clipPath>
</defs>
</svg>
