<svg width="41" height="40" viewBox="0 0 41 40" fill="none" xmlns="http://www.w3.org/2000/svg">
<g id="clarityEmployeeGroupLine0">
<path id="Vector" d="M21.0834 18.0044C19.6775 17.9896 18.3074 17.5615 17.1457 16.7738C15.9839 15.9862 15.0823 14.8742 14.5545 13.5779C14.0267 12.2817 13.8963 10.8591 14.1796 9.48919C14.463 8.11933 15.1474 6.86348 16.1468 5.87975C17.1461 4.89601 18.4158 4.22838 19.7958 3.96091C21.1758 3.69343 22.6045 3.83807 23.9021 4.37662C25.1997 4.91517 26.308 5.82354 27.0877 6.98738C27.8673 8.15121 28.2834 9.51848 28.2834 10.917C28.2702 12.8056 27.505 14.6119 26.1555 15.9404C24.8059 17.2688 22.9821 18.011 21.0834 18.0044ZM21.0834 6.31647C20.172 6.33118 19.2853 6.61344 18.5347 7.12781C17.784 7.64218 17.2029 8.36572 16.8644 9.20755C16.5258 10.0494 16.4448 10.972 16.6316 11.8594C16.8185 12.7469 17.2648 13.5596 17.9145 14.1956C18.5642 14.8315 19.3883 15.2623 20.2834 15.4339C21.1784 15.6054 22.1045 15.5101 22.9452 15.1598C23.786 14.8095 24.5039 14.2199 25.0089 13.465C25.5139 12.7102 25.7833 11.8237 25.7834 10.917C25.7703 9.68801 25.2685 8.51418 24.3877 7.65211C23.507 6.79003 22.319 6.30983 21.0834 6.31647Z" fill="#F24E1E"/>
<path id="Vector_2" d="M21.0835 18.0044C19.6776 17.9896 18.3075 17.5615 17.1457 16.7738C15.9839 15.9862 15.0823 14.8742 14.5545 13.5779C14.0268 12.2817 13.8963 10.8591 14.1796 9.48919C14.463 8.11933 15.1474 6.86348 16.1468 5.87975C17.1461 4.89601 18.4158 4.22838 19.7958 3.96091C21.1758 3.69343 22.6046 3.83807 23.9021 4.37662C25.1997 4.91517 26.3081 5.82354 27.0877 6.98738C27.8673 8.15121 28.2834 9.51848 28.2835 10.917C28.2702 12.8056 27.505 14.6119 26.1555 15.9404C24.806 17.2688 22.9821 18.011 21.0835 18.0044ZM21.0835 6.31647C20.1721 6.33118 19.2854 6.61344 18.5347 7.12781C17.7841 7.64218 17.203 8.36572 16.8644 9.20755C16.5258 10.0494 16.4448 10.972 16.6317 11.8594C16.8185 12.7469 17.2648 13.5596 17.9145 14.1956C18.5642 14.8315 19.3883 15.2623 20.2834 15.4339C21.1785 15.6054 22.1045 15.5101 22.9453 15.1598C23.786 14.8095 24.504 14.2199 25.0089 13.465C25.5139 12.7102 25.7833 11.8237 25.7835 10.917C25.7703 9.68801 25.2685 8.51418 24.3878 7.65211C23.5071 6.79003 22.3191 6.30983 21.0835 6.31647ZM25.446 19.6705C19.9016 18.7108 14.1939 19.5843 9.19597 22.1573C8.84119 22.3533 8.54741 22.6425 8.34679 22.9934C8.14617 23.3442 8.04643 23.7432 8.05847 24.1467V28.5732C8.05847 28.903 8.19017 29.2192 8.42459 29.4524C8.65901 29.6856 8.97695 29.8166 9.30847 29.8166C9.63999 29.8166 9.95793 29.6856 10.1924 29.4524C10.4268 29.2192 10.5585 28.903 10.5585 28.5732V24.3084C15.1931 21.9952 20.4635 21.2613 25.5585 22.2195L25.446 19.6705Z" fill="#F24E1E"/>
<path id="Vector_3" d="M39.3085 25.0793H30.9335V23.2391C30.9335 22.9094 30.8018 22.5931 30.5674 22.3599C30.3329 22.1267 30.015 21.9957 29.6835 21.9957C29.3519 21.9957 29.034 22.1267 28.7996 22.3599C28.5652 22.5931 28.4335 22.9094 28.4335 23.2391V25.0793H19.3085C18.977 25.0793 18.659 25.2103 18.4246 25.4435C18.1902 25.6767 18.0585 25.993 18.0585 26.3227V38.7567C18.0585 39.0864 18.1902 39.4027 18.4246 39.6359C18.659 39.8691 18.977 40.0001 19.3085 40.0001H39.3085C39.64 40.0001 39.9579 39.8691 40.1924 39.6359C40.4268 39.4027 40.5585 39.0864 40.5585 38.7567V26.3227C40.5585 25.993 40.4268 25.6767 40.1924 25.4435C39.9579 25.2103 39.64 25.0793 39.3085 25.0793ZM38.0585 37.5133H20.5585V27.5661H28.4335V28.0759C28.4335 28.4057 28.5652 28.7219 28.7996 28.9551C29.034 29.1883 29.3519 29.3193 29.6835 29.3193C30.015 29.3193 30.3329 29.1883 30.5674 28.9551C30.8018 28.7219 30.9335 28.4057 30.9335 28.0759V27.5661H38.0585V37.5133Z" fill="#F24E1E"/>
<path id="Vector_4" d="M25.321 31.8185H32.771V33.5592H25.321V31.8185ZM11.6085 12.9438C8.14778 13.0014 4.74709 13.8524 1.67097 15.4306C1.33642 15.6063 1.05619 15.8693 0.86024 16.1912C0.664287 16.5131 0.55998 16.882 0.558472 17.2583V21.1129C0.558472 21.4426 0.690168 21.7589 0.924588 21.9921C1.15901 22.2253 1.47695 22.3563 1.80847 22.3563C2.13999 22.3563 2.45793 22.2253 2.69235 21.9921C2.92678 21.7589 3.05847 21.4426 3.05847 21.1129V17.507C5.99759 16.0518 9.25167 15.3386 12.5335 15.4306C12.1041 14.6513 11.7924 13.8134 11.6085 12.9438ZM39.446 15.4181C36.687 13.9785 33.6549 13.1313 30.546 12.9313C30.3629 13.7994 30.0556 14.6369 29.6335 15.4181C32.5623 15.4879 35.4394 16.2012 38.0585 17.507V21.1129C38.0585 21.4426 38.1902 21.7589 38.4246 21.9921C38.659 22.2253 38.9769 22.3563 39.3085 22.3563C39.64 22.3563 39.9579 22.2253 40.1924 21.9921C40.4268 21.7589 40.5585 21.4426 40.5585 21.1129V17.2583C40.5592 16.8799 40.456 16.5084 40.2599 16.1841C40.0638 15.8597 39.7824 15.5949 39.446 15.4181ZM11.3835 10.917V10.084C10.4042 9.95361 9.51328 9.45262 8.89606 8.68527C8.27884 7.91792 7.98291 6.94335 8.06989 5.96443C8.15687 4.98551 8.62004 4.07767 9.363 3.42989C10.106 2.78212 11.0714 2.44433 12.0585 2.48684C13.0851 2.48499 14.0719 2.88207 14.8085 3.59346C15.4583 3.06026 16.1721 2.60921 16.9335 2.25059C16.083 1.27783 14.9561 0.584243 13.7014 0.261249C12.4468 -0.0617455 11.1231 0.00101396 9.90502 0.441255C8.68691 0.881497 7.63149 1.67856 6.87788 2.72737C6.12427 3.77619 5.70784 5.02754 5.68347 6.31649C5.7097 7.89405 6.32622 9.40522 7.4126 10.5548C8.49897 11.7044 9.97718 12.4099 11.5585 12.5335C11.4524 12.0008 11.3939 11.4599 11.3835 10.917ZM29.021 4.98304e-05C28.162 0.000237939 27.3116 0.170775 26.5196 0.50169C25.7276 0.832605 25.0099 1.31726 24.4085 1.92731C25.2535 2.2319 26.0526 2.65026 26.7835 3.1707C27.367 2.76775 28.0496 2.5299 28.7584 2.48249C29.4671 2.43509 30.1756 2.57992 30.8081 2.90153C31.4406 3.22315 31.9736 3.70949 32.3501 4.30871C32.7266 4.90793 32.9325 5.59755 32.946 6.30405C32.9381 7.02974 32.7238 7.73838 32.3278 8.34792C31.9318 8.95745 31.3704 9.44297 30.7085 9.74825C30.7588 10.1317 30.7838 10.5179 30.7835 10.9046C30.7801 11.4044 30.7383 11.9032 30.6585 12.3967C32.0202 12.0484 33.228 11.2622 34.0939 10.1603C34.9598 9.05834 35.4351 7.7026 35.446 6.30405C35.4295 4.62212 34.7445 3.01503 33.5406 1.83385C32.3368 0.652672 30.7119 -0.00660061 29.021 4.98304e-05Z" fill="#F24E1E"/>
</g>
</svg>
