<svg width="40" height="40" viewBox="0 0 40 40" fill="none" xmlns="http://www.w3.org/2000/svg">
<g id="flat-color-icons:customer-support">
<path id="Vector" d="M24.17 35.8333V32L26.3366 32.4167C28.7533 32.9167 31.0033 31.1667 31.17 28.75L31.67 23.3333L34.0866 22.3333C34.92 22 35.2533 21 34.7533 20.1667L31.67 15C31.17 8.66667 27.5866 2.5 18.3366 2.5C8.83662 2.5 4.16995 9.5 4.16995 16.6667C4.16995 19.75 5.25329 22.4167 6.91995 24.6667C8.41995 26.75 9.16995 29.25 9.16995 31.75V35.75H24.17V35.8333Z" fill="#FFB74D"/>
<path id="Vector_2" d="M24.17 35.8334V32L18.3366 30.8334V35.8334H24.17Z" fill="#FF9800"/>
<path id="Vector_3" d="M27.92 19.1666C28.6103 19.1666 29.17 18.607 29.17 17.9166C29.17 17.2263 28.6103 16.6666 27.92 16.6666C27.2296 16.6666 26.67 17.2263 26.67 17.9166C26.67 18.607 27.2296 19.1666 27.92 19.1666Z" fill="#784719"/>
<path id="Vector_4" d="M17.8366 2.5C10.2533 2.5 4.16995 8.58333 4.16995 16.1667C4.16995 25.4167 9.16995 25.6667 9.16995 31.6667L11.3366 30.9167C13.0866 30.3333 14.5866 29 15.2533 27.25L17.5866 21.5833L22.5033 19.1667V14.1667C22.5033 14.1667 28.3366 11 28.3366 5.58333C25.8366 3.5 21.42 2.5 17.8366 2.5Z" fill="#FF5722"/>
<path id="Vector_5" d="M17.5033 1.75C17.0033 1.75 16.67 2.08333 16.67 2.58333V14.1667C16.67 14.6667 17.0033 15 17.5033 15C18.0033 15 18.3366 14.6667 18.3366 14.1667V2.58333C18.3366 2.08333 18.0033 1.75 17.5033 1.75ZM30.7533 26.5833C24.17 26.5833 22.17 22.5 22.0866 22.3333C21.92 21.9167 21.42 21.75 21.0033 21.9167C20.5866 22.0833 20.42 22.5833 20.5866 23C20.67 23.25 23.0866 28.25 30.7533 28.25C31.2533 28.25 31.5866 27.9167 31.5866 27.4167C31.5866 26.9167 31.17 26.5833 30.7533 26.5833Z" fill="#546E7A"/>
<path id="Vector_6" d="M30.8366 29.1667C31.7571 29.1667 32.5033 28.4205 32.5033 27.5C32.5033 26.5796 31.7571 25.8334 30.8366 25.8334C29.9161 25.8334 29.17 26.5796 29.17 27.5C29.17 28.4205 29.9161 29.1667 30.8366 29.1667Z" fill="#37474F"/>
<path id="Vector_7" d="M17.5033 25C20.7249 25 23.3366 22.3884 23.3366 19.1667C23.3366 15.945 20.7249 13.3334 17.5033 13.3334C14.2816 13.3334 11.67 15.945 11.67 19.1667C11.67 22.3884 14.2816 25 17.5033 25Z" fill="#37474F"/>
<path id="Vector_8" d="M17.5033 22.5C19.3442 22.5 20.8366 21.0077 20.8366 19.1667C20.8366 17.3258 19.3442 15.8334 17.5033 15.8334C15.6623 15.8334 14.17 17.3258 14.17 19.1667C14.17 21.0077 15.6623 22.5 17.5033 22.5Z" fill="#546E7A"/>
</g>
</svg>
